<?xml version="1.0" encoding="utf-8"?>
<!-- Generator: Adobe Illustrator 19.0.0, SVG Export Plug-In . SVG Version: 6.00 Build 0)  -->
<svg version="1.1"
	 id="svg8" inkscape:version="0.92.4 (5da689c313, 2019-01-14)" sodipodi:docname="MySignature.svg" xmlns:inkscape="http://www.inkscape.org/namespaces/inkscape" xmlns:sodipodi="http://sodipodi.sourceforge.net/DTD/sodipodi-0.dtd" xmlns:dc="http://purl.org/dc/elements/1.1/" xmlns:cc="http://creativecommons.org/ns#" xmlns:svg="http://www.w3.org/2000/svg" xmlns:rdf="http://www.w3.org/1999/02/22-rdf-syntax-ns#"
	 xmlns="http://www.w3.org/2000/svg" xmlns:xlink="http://www.w3.org/1999/xlink" x="0px" y="0px" viewBox="-291 165.4 376.9 230.6"
	 style="enable-background:new -291 165.4 376.9 230.6;" xml:space="preserve">
<style type="text/css">
	.st0{fill:#5B5B5B;}
</style>
<sodipodi:namedview  id="base" inkscape:pageshadow="2" inkscape:pageopacity="0.0" inkscape:current-layer="layer1" inkscape:window-width="1920" inkscape:window-y="-8" inkscape:window-maximized="1" inkscape:window-x="-8" inkscape:document-units="mm" inkscape:window-height="1028" inkscape:zoom="0.57769471" showgrid="false" bordercolor="#666666" inkscape:cx="478.98712" pagecolor="#ffffff" borderopacity="1.0" inkscape:cy="406.45061">
	</sodipodi:namedview>
<g>
	<g id="XMLID_5_">
		<g id="XMLID_1_">
			<g>
				<path d="M-270.6,266.4c-0.3,0-0.5,0-0.8-0.1c-0.9-0.2-1.7-0.9-2.5-1.9c-0.8-1.2-1.4-2.5-2-3.9c-1-2.3-2-4.5-4-5.4l0.7-1.5
					c2.6,1.2,3.7,3.8,4.9,6.2c0.6,1.2,1.1,2.5,1.9,3.6c0.5,0.7,1,1.2,1.5,1.3c1,0.3,2.1-0.5,3.1-1.4c6.7-5.8,13.8-12,20.3-19
					c-0.2-1.6-0.1-3.2,0.5-4.8c0.4-1,0.9-1.6,1.5-2c0.7-0.3,1.4-0.4,2-0.1c0.4,0.2,0.8,0.5,1.2,0.9c2.3-2.8,4.5-5.7,6.5-8.8
					c-0.5-0.8-0.9-1.7-1.1-2.7c-0.4-1.6-0.4-3.5,0.1-5.5c1-4.3,3.7-8.2,7.4-10.6c0.5-0.4,1.2-0.7,2-0.6c0.6,0.1,1,0.4,1.3,0.9
					c0.5,1,0.3,2.4,0,3.3c-2,5.4-4.6,10.5-7.7,15.2c0.6,1,1.4,1.9,2.1,2.8l0.5,0.7c2.8,3.4,6.9,10,4.7,16c0.2-0.2,0.4-0.5,0.6-0.7
					c3-4,4.1-9.1,5.1-13.7c0.1-0.4,0.5-0.7,1-0.6c0.4,0.1,0.7,0.5,0.7,1c-0.7,3.7-1.1,7.4-1,11.2c0,1.2,0.1,2.6,0.8,3.5
					c1,1.3,3.2,1.3,4.6,0.6c1.8-0.9,2.9-2.9,3.6-4.3c1-1.9,1.7-4,2.2-6.1c0.2-1.9,0.5-3.9,0.8-5.8c0.1-0.4,0.5-0.7,0.9-0.7
					c0.4,0,0.8,0.4,0.7,0.9c-0.1,2-0.3,4-0.8,5.9c-0.2,2.5-0.4,5.1-0.3,7.6c0,1.3,0.1,2.7,0.6,3.8c0.7,1.3,1.8,1.8,2.7,2.1
					c1.6,0.5,3.6,0.2,5-0.7c2.9-1.7,4.4-5.3,5.3-7.7c0.4-1,0.7-2.1,1-3.1c0.3-4.9,0.4-9.9,0.5-14.8c0-1.1,0-3.1,1.5-4.1
					c0.2-0.2,0.6-0.2,0.8-0.1c0.3,0.1,0.5,0.4,0.5,0.7c0.6,6.2,0,12.5-1.7,18.5c-0.1,1.3-0.2,2.6-0.2,3.9c0.6-0.7,1.3-1.4,1.9-2
					c3.7-3.9,7.9-8.4,13.3-10.8c0.3-0.2,0.7-0.1,1,0.2c1.5,1.8,0.3,4.2-1.3,5.9c-1.8,1.9-3.9,3.7-6,5.2c1.3,0.8,2.5,2,3.6,3.7
					c0.3,0.5,0.6,1,1,1.4c1.1,1.7,2.2,3.3,3.7,4.4c0.9,0.6,1.1,0.5,1.1,0.5c0.2-0.1,0.6-0.9,0.9-1.5c0.1-0.2,0.2-0.4,0.3-0.7
					l1.5,0.8c-0.1,0.2-0.2,0.5-0.3,0.7c-0.6,1.2-1,2.1-2,2.3c-0.9,0.2-1.7-0.3-2.5-0.8c-1.8-1.2-3-3.1-4.2-4.9
					c-0.3-0.5-0.6-0.9-0.9-1.4c-0.9-1.3-2.2-2.8-3.8-3.5c-1.4,0.9-2.9,1.7-4.4,2.5c-0.2,0.1-0.5,0.1-0.7,0c-0.2-0.1-0.4-0.3-0.5-0.5
					c-0.1-0.3-0.1-0.5-0.1-0.8c-0.6,0.7-1.2,1.4-1.8,2.2c-0.2,3.1-0.5,6.1-0.8,9.2c0,0.3-0.3,0.6-0.6,0.7c-0.3,0.1-0.7,0-0.9-0.3
					c-1.5-2.2-1.6-5.3-0.4-8.2c0.3-0.7,0.7-1.3,1-1.9c0-0.2,0-0.4,0-0.6c-1,2.3-2.6,4.8-5.1,6.3c-1.8,1.1-4.3,1.4-6.3,0.8
					c-1.7-0.5-3-1.5-3.7-2.9c-0.7-1.4-0.8-3-0.8-4.5c0-0.6,0-1.3,0-1.9c-0.1,0.3-0.3,0.5-0.4,0.8c-0.8,1.6-2.1,3.8-4.3,5
					c-2,1.1-5.1,1-6.7-1c-1-1.3-1.1-3-1.1-4.5c0-0.6,0-1.2,0-1.7c-0.7,1.7-1.6,3.4-2.7,4.9c-1.5,2-3.7,3.9-6.3,5
					c-2.1,1.3-4.6,2.1-6.8,2.3c-1.1,0.1-2.4,0.2-3.7-0.4c-1.3-0.7-2.1-1.9-2.8-3.1c-1.2-2.1-2.4-4.4-3.1-6.7
					c-6.3,6.7-13.1,12.7-19.6,18.2C-267.5,265.1-268.9,266.4-270.6,266.4z M-245.8,244.8c0.5,2.5,1.8,5,3.1,7.3
					c0.6,1.1,1.2,2,2.2,2.5c0.8,0.4,1.8,0.4,2.7,0.3c-0.2-0.1-0.5-0.1-0.7-0.2c-0.6-0.2-1.5-0.6-2.1-1.4c-0.6-0.9-0.6-1.9-0.6-2.7
					c0-3.2-0.4-6.2-1.3-9.2c0,0,0-0.1,0-0.1C-243.6,242.4-244.7,243.6-245.8,244.8z M-241.4,239.7c0.2,0.4,0.3,0.7,0.4,1.1
					c0.9,3.1,1.4,6.4,1.4,9.6c0,0.8,0,1.4,0.3,1.9c0.2,0.3,0.6,0.6,1.2,0.8c2.2,0.7,4.5,0.5,6.6-0.4c1.3-0.9,2.5-2.1,3.2-3.5
					c2.6-5.4-1.5-11.7-4.2-15l-0.5-0.7c-0.6-0.8-1.2-1.5-1.8-2.3C-236.9,234.1-239.1,237-241.4,239.7z M-186.1,243
					C-186.1,243-186,243-186.1,243c0.6,0,1,0.5,1.5,0.6c2.4-1.6,4.6-3.3,6.6-5.4c0.7-0.7,1.7-2,1.5-3c-4.1,2.1-7.5,5.1-10.6,8.3
					C-186.8,243.4-186.4,243-186.1,243z M-244.5,238.9c-0.1,0-0.2,0-0.3,0.1c-0.3,0.1-0.5,0.5-0.7,1c-0.3,0.8-0.4,1.7-0.5,2.5
					c0.9-1,1.7-1.9,2.6-2.9c-0.2-0.3-0.5-0.5-0.8-0.6C-244.3,238.9-244.4,238.9-244.5,238.9z M-227.8,211.8c-0.2,0-0.6,0.2-0.7,0.3
					c-3.4,2.2-5.8,5.7-6.7,9.6c-0.4,1.7-0.4,3.3-0.1,4.7c0.1,0.5,0.3,1,0.5,1.5c2.8-4.5,5.2-9.2,7.1-14.2c0.3-0.7,0.3-1.5,0.1-1.8
					C-227.6,211.8-227.7,211.8-227.8,211.8C-227.8,211.8-227.8,211.8-227.8,211.8z"/>
			</g>
		</g>
		<g id="XMLID_3_">
			<g>
				<path d="M-123.9,318.6c-0.2,0-0.4,0-0.6-0.1c-0.5-0.3-0.8-0.8-0.9-1c-6.4-12.6-5.7-28.5,1.7-40.6c2-3.3,4.2-5.7,6.7-7.5
					c1.4-1,2.8-2,4.2-3c1.5-5.4,3.4-10.8,5.8-15.9c0.3-0.7,0.6-1.4,1-2c1.3-2.8,2.7-5.7,3.4-8.6c-1.1,2.2-2.3,4.6-4.1,6.4
					c-1.9,1.9-4.9,2.9-7.4,2.6c-1.8-0.2-3.3-1.2-4.1-2.6c-1.3-2.3-0.7-4.8,0-7.3c0-0.2,0.1-0.3,0.1-0.5c-2,2.9-4.3,5.5-6.9,7.9
					c-2.4,2.1-4.1,2-5.1,1.5c-1.3-0.6-1.8-2-2.1-3.2c-0.6-2.4-0.9-4.8-0.9-7.2c-2.1,4.4-5,8.4-8.4,11.9c-1,1-2.7,2-4.2,1.9
					c-0.8-0.1-1.4-0.5-1.8-1.2c-0.6-1-0.3-2.3-0.1-3l1.3-5.1l-0.8,1.6c-1,1.9-2.2,4.2-4.2,5.7c-2.2,1.5-3,0.8-4.4-0.7l-0.3-0.4
					c-2-2.2-2.8-4.8-3-7.4c-1.5,5.2-3.5,9.8-8.9,13.1c-0.9,0.6-2.3,1.1-3.5,0.8c-0.6-0.2-1.2-0.5-1.5-1.1c-0.5-0.8-0.4-1.7-0.2-2.5
					c1.1-6.1,4.2-11.9,8.6-16.3c2.4-2.4,4.8-3.3,6.9-2.6c0.4,0.1,0.6,0.5,0.6,0.8c0,0.6-0.1,1.2-0.1,1.9c-0.3,3.9-0.7,8.6,2.5,12.1
					l0.4,0.4c1.1,1.2,1.1,1.2,2.2,0.4c1.7-1.2,2.8-3.3,3.7-5.1l4.2-8.3c0.2-0.4,0.6-0.6,1-0.4c0.4,0.2,0.6,0.6,0.5,1l-3.1,12.3
					c-0.2,0.7-0.3,1.3-0.1,1.8c0.1,0.2,0.3,0.3,0.5,0.4c0.7,0.1,1.9-0.5,2.8-1.4c4.5-4.6,8-10.2,10.1-16.3c0.1-0.4,0.6-0.7,1-0.5
					c0.4,0.1,0.7,0.5,0.6,1c-0.7,4-0.6,8.1,0.4,12c0.2,0.8,0.5,1.8,1.2,2.1c1,0.5,2.3-0.4,3.2-1.2c3.5-3.1,6.4-6.8,8.7-10.9
					c0.2-0.3,0.6-0.5,0.9-0.4c0.4,0.1,0.6,0.4,0.6,0.8c0.1,1.6-0.3,3.2-0.7,4.8c-0.6,2.2-1.1,4.3-0.1,6c0.7,1.3,2,1.7,2.9,1.8
					c2,0.3,4.5-0.6,6-2.1c1.7-1.7,2.7-3.8,3.9-6c0.7-1.3,1.3-2.7,2.1-3.9c0.2-0.3,0.6-0.5,0.9-0.4c0.4,0.1,0.6,0.4,0.6,0.8
					c0,4.8-2.1,9.3-4.1,13.6c-0.3,0.7-0.6,1.4-1,2c-2,4.4-3.7,9-5.1,13.7c0.6-0.4,1.2-0.8,1.8-1.2c5.5-3.8,11.2-7.6,16-12
					c-0.1,0-0.1,0-0.2,0c-1,0.2-2,0-2.8-0.6c-1.6-1.1-2.1-3.4-1.3-6.1c1-3.5,2.9-6.8,5.5-9.3c1.5-1.4,3.7-2.6,5.5-1.4
					c0.6,0.4,1,1,1.3,1.8c0.3,0.2,0.5,0.5,0.4,0.8c0,0.3-0.1,0.5-0.1,0.8c0,0.1,0,0.1,0,0.2c0.1,0.9,0,1.8-0.1,2.7
					c0.1,1.5,0.6,3,1.2,4.4c0.7,1.4,1.4,2.3,2.3,2.7c0.9,0.4,2.2,0.1,2.5-0.7l1.5,0.7c-0.8,1.8-3.1,2.3-4.7,1.6
					c-1.3-0.5-2.4-1.7-3.2-3.5c-0.2-0.4-0.4-0.9-0.6-1.4c-0.8,2.2-2,4.3-3.6,6c-5.4,5.6-12.2,10.3-18.9,14.8
					c-1.1,0.8-2.3,1.5-3.4,2.3c-2.4,8.7-4.1,17.6-5.7,26.3c-1.4,7.5-2.8,15.3-4.7,22.8c-0.2,0.7-0.6,1.6-1.4,2
					C-123.5,318.5-123.7,318.6-123.9,318.6z M-113.6,268.8c-0.8,0.6-1.7,1.2-2.5,1.8c-2.3,1.7-4.3,4-6.3,7.1
					c-7.2,11.5-7.8,26.8-1.7,38.9c0,0,0.1,0.1,0.1,0.2c0.1-0.1,0.3-0.4,0.4-0.8c1.9-7.5,3.3-15.2,4.7-22.7
					C-117.3,285.2-115.8,276.9-113.6,268.8z M-159.5,233.5c-1.6,0-3.2,1.2-4.3,2.4c-4.2,4.1-7,9.6-8.1,15.4c-0.1,0.5-0.2,1,0,1.4
					c0.1,0.2,0.2,0.3,0.4,0.3c0.5,0.1,1.4-0.1,2.2-0.6c6.2-3.8,7.5-9.3,9.2-16.3C-159.8,235.2-159.6,234.4-159.5,233.5
					C-159.4,233.5-159.5,233.5-159.5,233.5z M-87.9,235.4c-0.9,0-1.9,0.7-2.6,1.4c-2.4,2.4-4.2,5.3-5.1,8.6
					c-0.2,0.8-0.8,3.3,0.6,4.3c0.4,0.3,0.9,0.4,1.5,0.3c1.4-0.3,2.8-1.7,3.6-3c1.8-2.9,3-6.1,3.6-9.5c-0.1-1-0.4-1.6-0.8-1.9
					C-87.4,235.5-87.6,235.4-87.9,235.4z"/>
			</g>
		</g>
		<g id="XMLID_4_">
			<g>
				<path d="M-19.1,261c-2,0-3.8-0.6-5.1-1.8c-2.6,0.2-5.3-0.8-7.2-2.8c-1.3-1.3-2.3-2.9-2.9-4.7c-0.2,0.2-0.4,0.5-0.6,0.7
					c-1.5,1.6-3.6,3.8-6.3,4.3c-1.6,0.3-3.5-0.2-4.7-1.3c-1-0.9-1.5-2-1.4-3.2l1.7,0.1c-0.1,0.8,0.4,1.5,0.8,1.8
					c0.9,0.8,2.2,1.1,3.3,0.9c2-0.4,3.7-2,5.4-3.8c0.5-0.5,0.9-1,1.4-1.4c-0.4-2-0.4-4.3,0-6.8c0.2-1,0.8-1.7,1.8-2
					c0.9-0.3,1.9,0.1,2.6,0.8c0.5,0.6,0.9,1.2,1.4,1.8c2.2-2.5,4.4-5.2,6.5-7.9c-0.1-0.2-0.1-0.5-0.2-0.7c-0.8-3.5-0.5-6.7,0.8-9.2
					c1.7-3.1,5.2-4.9,8.3-4.3c0.2,0,0.5,0.2,0.6,0.4c0.1,0.2,0.1,0.5,0,0.7c-2,4.8-4.7,9.2-7.7,13.4c0.5,1.5,1.1,2.9,1.6,4.3
					c0.7,1.8,1.5,3.7,2,5.6c1.2,4.8,0.2,10.9-4.9,12.8c1.5,0.7,3.3,0.7,4.7,0.4c2.4-0.5,4.5-2,6.5-3.3l2.8-1.9
					c-1-1.6-1.2-3.8-0.6-6.1c1.3-5.2,5.9-9.5,11.2-10.4c0.6-0.1,1.4-0.2,2.1,0.1c0.8,0.4,1.4,1.2,1.6,2.3c0.4,0.1,0.7,0.5,0.7,0.9
					l-1.2,8.3c-0.1,0.6-0.1,1.1,0,1.4c0.2,0.4,0.7,0.6,1,0.7c2.4,0.9,5-0.7,7.5-2.6c1-0.8,2.1-1.5,3.1-2.3
					c1.7-7.7,4.1-15.3,7.2-22.6c0.9-2.1,2-4.3,4.1-5.4c1.4-0.7,2.9-0.8,4.2-0.2c2.6,1.3,2.4,4.4,2.3,5.4c-0.5,6.6-4.1,12.1-7.1,15.5
					c-2.7,3.2-5.9,5.8-9.2,8.3c-0.5,2.3-0.9,4.7-1.3,7.1l4.1-7.1c1.2-2.1,2.6-4.5,5.2-5.7c1.9-0.9,4-0.7,5.4,0.5
					c1.9,1.5,1.9,3.8,1.9,6.1c0,1.7,0.1,3.2,0.8,4.4c0.7,1.2,2.2,1.9,4,2.1c1.5,0.2,3,0,4.5-0.6c-0.2-0.2-0.4-0.5-0.5-0.7
					c-1.7-2.8-0.9-5.9,0.1-8.4c1.4-3.6,3.3-6.9,5.8-9.9c0.7-0.9,2.2-2.7,4.5-2.2c1.3,0.3,2.5,1.3,3,2.7c0.6,1.5,0.5,3,0.1,4.4
					l0.3,1.4l-0.8,0.2c-0.1,0.3-0.2,0.5-0.3,0.8c-1,3.3-2.4,6.5-3.9,9.5c-0.7,1.3-2,3.9-5,3.8c-0.6,0-1.2-0.2-1.7-0.4
					c-2,0.9-4.2,1.3-6.2,1.1c-2.3-0.3-4.2-1.3-5.2-2.9c-1-1.6-1-3.5-1-5.3c0-2-0.1-3.8-1.3-4.8c-0.9-0.8-2.3-0.9-3.6-0.3
					c-2.1,1-3.3,3-4.4,5l-6.2,10.9c-0.2,0.3-0.6,0.5-1,0.4c-0.4-0.1-0.6-0.5-0.6-0.9c0.4-3.2,0.9-6.4,1.5-9.6
					c-0.5,0.4-1.1,0.8-1.6,1.2c-2.7,2-5.9,3.9-9.1,2.8c-0.9-0.3-1.6-0.9-1.9-1.6c-0.4-0.8-0.3-1.7-0.2-2.3l0-0.3
					c-0.9,1.8-2,3.5-3.3,5.1c-0.9,1.1-2.9,3.6-6,2.7c-0.7-0.2-1.3-0.6-1.8-1l-2.9,2c-2.1,1.4-4.4,3-7.1,3.6
					C-17.7,260.9-18.4,261-19.1,261z M-33,250.2c0.5,1.9,1.4,3.6,2.7,4.9c1.3,1.4,3,2.2,4.7,2.3c-0.7-1.2-0.9-2.6-1.2-3.9
					c-0.1-0.3-0.1-0.7-0.2-1c-0.5-2.2-1.3-4.3-2.4-6.2C-30.6,247.7-31.8,249-33,250.2z M-28.2,245c1.3,2.2,2.3,4.7,2.9,7.2
					c0.1,0.3,0.1,0.7,0.2,1c0.3,1.6,0.6,3.1,1.5,4.2c0.3-0.1,0.7-0.2,1-0.3c4.2-1.6,4.9-6.6,3.8-10.8c-0.5-1.8-1.2-3.6-1.9-5.4
					c-0.5-1.1-0.9-2.2-1.3-3.3C-24,240.2-26.1,242.6-28.2,245z M-5.6,254.2c0.3,0.2,0.5,0.3,0.8,0.4c1.7,0.5,2.9-0.5,4.2-2.1
					c0.9-1.2,1.8-2.4,2.5-3.7c-1.2,1.1-2.5,2.1-3.9,3L-5.6,254.2z M49.5,252c0,0-0.1,0.1-0.1,0.1c-0.7,0.7-1.5,1.3-2.3,1.9
					C48.1,253.8,48.8,253.1,49.5,252z M52.4,234.5c-0.9,0-1.6,0.6-2.5,1.7c-2.3,2.8-4.2,6-5.5,9.4c-0.8,2.1-1.5,4.7-0.2,6.9
					c0.2,0.3,0.5,0.6,0.7,0.9c1.2-0.6,2.3-1.4,3.3-2.4c2.8-2.7,4.5-6.3,5.7-9.2c0.2-0.8,0.5-1.5,0.7-2.3c0-0.1,0.1-0.3,0.2-0.4
					c0.2-1,0.2-2-0.2-2.9c-0.3-0.9-1-1.5-1.8-1.6C52.6,234.5,52.5,234.5,52.4,234.5z M3.4,238.9c-0.2,0-0.4,0-0.6,0.1
					c-4.7,0.8-8.7,4.5-9.8,9.1c-0.3,1.4-0.5,3.3,0.4,4.8l3.8-2.6c3.8-2.6,7.6-5.7,7.4-9.8c0-0.6-0.2-1.3-0.7-1.5
					C3.7,239,3.5,238.9,3.4,238.9z M-32.4,242.5c-0.1,0-0.2,0-0.2,0c-0.1,0-0.5,0.2-0.6,0.7c-0.3,1.8-0.3,3.5-0.2,5
					c1-1.1,2.1-2.2,3.1-3.3c-0.5-0.7-1-1.4-1.5-2C-32,242.6-32.2,242.5-32.4,242.5z M30.9,219.3c-0.5,0-1,0.1-1.5,0.4
					c-1.7,0.9-2.5,2.7-3.3,4.6c-2.8,6.6-5,13.4-6.7,20.4c2.6-2.1,5.2-4.3,7.4-6.9c2.8-3.2,6.2-8.3,6.7-14.5c0.1-2-0.3-3.2-1.4-3.8
					C31.6,219.4,31.2,219.3,30.9,219.3z M-15.1,223c-2.1,0-4.3,1.4-5.4,3.5c-1.1,2-1.4,4.6-0.8,7.3C-18.9,230.4-16.8,226.8-15.1,223
					z"/>
			</g>
		</g>
		<g id="XMLID_8_">
			<g>
				<path d="M61.2,251.2c-0.6,0-1.1-0.1-1.6-0.3c-1.9-0.7-3.3-2.6-4-5.2c-0.2-0.9-0.3-1.8-0.4-2.6c-0.2-1.1-0.3-2.2-0.6-3.2l1.6-0.5
					c0.4,1.2,0.5,2.3,0.7,3.5c0.1,0.9,0.2,1.7,0.4,2.5c0.2,1,1,3.3,2.9,4c1.2,0.4,2.6,0.1,3.7-0.8c1-0.8,1.7-2.1,2.2-3.7l1.6,0.5
					c-0.6,1.9-1.5,3.5-2.8,4.5C63.8,250.7,62.5,251.2,61.2,251.2z"/>
			</g>
		</g>
		<g id="XMLID_7_">
			<g>
				<path d="M73,245.1c-2.5-0.1-2.7,4.1-0.2,4.2C75.3,249.4,75.5,245.2,73,245.1z"/>
			</g>
		</g>
	</g>
	<g>
		<path class="st0" d="M-203.2,345c-1.5-0.4-2.6-1-3.5-1.8l1.3-3c0.8,0.7,1.9,1.2,3.1,1.6c1.2,0.4,2.4,0.6,3.7,0.6
			c1.5,0,2.7-0.2,3.4-0.7s1.1-1.1,1.1-1.9c0-0.6-0.2-1.1-0.6-1.4c-0.4-0.4-1-0.7-1.6-0.9c-0.6-0.2-1.5-0.5-2.6-0.7
			c-1.6-0.4-2.8-0.7-3.8-1.1c-1-0.4-1.8-1-2.5-1.7s-1-1.9-1-3.2c0-1.1,0.3-2.2,0.9-3.1c0.6-0.9,1.5-1.7,2.8-2.2
			c1.2-0.5,2.8-0.8,4.5-0.8c1.2,0,2.5,0.2,3.7,0.5c1.2,0.3,2.3,0.8,3.1,1.3l-1.2,3c-0.9-0.5-1.8-0.9-2.8-1.2c-1-0.3-1.9-0.4-2.8-0.4
			c-1.5,0-2.6,0.3-3.4,0.8c-0.7,0.5-1.1,1.2-1.1,2c0,0.6,0.2,1.1,0.6,1.4c0.4,0.4,1,0.7,1.6,0.9c0.6,0.2,1.5,0.5,2.6,0.7
			c1.5,0.4,2.8,0.7,3.7,1.1c1,0.4,1.8,1,2.5,1.7c0.7,0.8,1,1.8,1,3.2c0,1.1-0.3,2.2-0.9,3.1c-0.6,0.9-1.5,1.6-2.8,2.2
			c-1.2,0.5-2.8,0.8-4.6,0.8C-200.2,345.7-201.7,345.5-203.2,345z"/>
		<path class="st0" d="M-171.8,329.8v15.6h-3.5v-2c-0.6,0.7-1.3,1.2-2.2,1.6c-0.9,0.4-1.8,0.6-2.8,0.6c-2.1,0-3.7-0.6-4.9-1.7
			c-1.2-1.2-1.8-2.9-1.8-5.2v-8.9h3.7v8.4c0,1.4,0.3,2.5,1,3.1c0.6,0.7,1.5,1,2.7,1c1.3,0,2.3-0.4,3.1-1.2c0.8-0.8,1.2-2,1.2-3.5
			v-7.9H-171.8z"/>
		<path class="st0" d="M-160.6,338.7l-2.7,2.6v4.1h-3.7v-21.7h3.7v13.1l7.6-7h4.4l-6.5,6.6l7.1,9.1h-4.4L-160.6,338.7z"/>
		<path class="st0" d="M-137.4,331.3c1.2,1.1,1.8,2.8,1.8,5v9.2h-3.5v-1.9c-0.4,0.7-1.1,1.2-1.9,1.6c-0.8,0.4-1.8,0.5-3,0.5
			c-1.2,0-2.2-0.2-3.1-0.6c-0.9-0.4-1.6-1-2-1.7s-0.7-1.5-0.7-2.4c0-1.4,0.5-2.5,1.6-3.4s2.7-1.3,4.9-1.3h4v-0.2
			c0-1.1-0.3-1.9-1-2.5c-0.7-0.6-1.6-0.9-2.9-0.9c-0.9,0-1.7,0.1-2.6,0.4c-0.8,0.3-1.6,0.7-2.2,1.1l-1.4-2.7c0.8-0.6,1.8-1.1,3-1.4
			c1.2-0.3,2.4-0.5,3.7-0.5C-140.4,329.6-138.7,330.2-137.4,331.3z M-140.8,342.3c0.7-0.4,1.2-1,1.5-1.8v-1.8h-3.8
			c-2.1,0-3.2,0.7-3.2,2.1c0,0.7,0.3,1.2,0.8,1.6c0.5,0.4,1.3,0.6,2.2,0.6C-142.3,343-141.5,342.8-140.8,342.3z"/>
		<path class="st0" d="M-117.3,331.3c1.2,1.2,1.8,2.9,1.8,5.1v9h-3.7v-8.5c0-1.4-0.3-2.4-1-3.1c-0.6-0.7-1.6-1-2.8-1
			c-1.3,0-2.4,0.4-3.2,1.2c-0.8,0.8-1.2,2-1.2,3.5v7.9h-3.7v-15.6h3.5v2c0.6-0.7,1.4-1.3,2.3-1.6c0.9-0.4,2-0.6,3.1-0.6
			C-120.1,329.6-118.5,330.2-117.3,331.3z"/>
		<path class="st0" d="M-96.6,329.8l-7.3,16.9c-0.7,1.7-1.5,2.9-2.5,3.6c-1,0.7-2.2,1-3.5,1c-0.8,0-1.6-0.1-2.3-0.4
			c-0.8-0.3-1.4-0.6-1.9-1.1l1.5-2.7c0.4,0.3,0.8,0.6,1.2,0.8c0.5,0.2,1,0.3,1.4,0.3c0.6,0,1.2-0.2,1.6-0.5c0.4-0.3,0.8-0.9,1.2-1.7
			l0.3-0.6l-6.8-15.7h3.8l4.9,11.6l4.9-11.6H-96.6z"/>
		<path class="st0" d="M-83.5,331.3c1.2,1.1,1.8,2.8,1.8,5v9.2h-3.5v-1.9c-0.4,0.7-1.1,1.2-1.9,1.6c-0.8,0.4-1.8,0.5-3,0.5
			c-1.2,0-2.2-0.2-3.1-0.6c-0.9-0.4-1.6-1-2-1.7s-0.7-1.5-0.7-2.4c0-1.4,0.5-2.5,1.6-3.4c1-0.8,2.7-1.3,4.9-1.3h4v-0.2
			c0-1.1-0.3-1.9-1-2.5c-0.7-0.6-1.6-0.9-2.9-0.9c-0.9,0-1.7,0.1-2.6,0.4c-0.8,0.3-1.6,0.7-2.2,1.1l-1.4-2.7c0.8-0.6,1.8-1.1,3-1.4
			c1.2-0.3,2.4-0.5,3.7-0.5C-86.5,329.6-84.7,330.2-83.5,331.3z M-86.9,342.3c0.7-0.4,1.2-1,1.5-1.8v-1.8h-3.8
			c-2.1,0-3.2,0.7-3.2,2.1c0,0.7,0.3,1.2,0.8,1.6c0.5,0.4,1.3,0.6,2.2,0.6C-88.4,343-87.6,342.8-86.9,342.3z"/>
		<path class="st0" d="M-66.8,345c-1.5-0.4-2.6-1-3.5-1.8l1.3-3c0.8,0.7,1.9,1.2,3.1,1.6c1.2,0.4,2.4,0.6,3.7,0.6
			c1.5,0,2.7-0.2,3.4-0.7c0.8-0.5,1.1-1.1,1.1-1.9c0-0.6-0.2-1.1-0.6-1.4c-0.4-0.4-1-0.7-1.6-0.9s-1.5-0.5-2.6-0.7
			c-1.6-0.4-2.8-0.7-3.8-1.1c-1-0.4-1.8-1-2.5-1.7c-0.7-0.8-1-1.9-1-3.2c0-1.1,0.3-2.2,0.9-3.1c0.6-0.9,1.5-1.7,2.8-2.2
			c1.2-0.5,2.8-0.8,4.5-0.8c1.2,0,2.5,0.2,3.7,0.5c1.2,0.3,2.3,0.8,3.1,1.3l-1.2,3c-0.9-0.5-1.8-0.9-2.8-1.2c-1-0.3-1.9-0.4-2.8-0.4
			c-1.5,0-2.6,0.3-3.4,0.8c-0.7,0.5-1.1,1.2-1.1,2c0,0.6,0.2,1.1,0.6,1.4c0.4,0.4,1,0.7,1.6,0.9c0.6,0.2,1.5,0.5,2.6,0.7
			c1.5,0.4,2.8,0.7,3.7,1.1c1,0.4,1.8,1,2.5,1.7c0.7,0.8,1,1.8,1,3.2c0,1.1-0.3,2.2-0.9,3.1s-1.5,1.6-2.8,2.2s-2.8,0.8-4.6,0.8
			C-63.8,345.7-65.3,345.5-66.8,345z"/>
		<path class="st0" d="M-39.3,331.3c1.2,1.1,1.8,2.8,1.8,5v9.2h-3.5v-1.9c-0.4,0.7-1.1,1.2-1.9,1.6c-0.8,0.4-1.8,0.5-3,0.5
			c-1.2,0-2.2-0.2-3.1-0.6c-0.9-0.4-1.6-1-2-1.7s-0.7-1.5-0.7-2.4c0-1.4,0.5-2.5,1.6-3.4c1-0.8,2.7-1.3,4.9-1.3h4v-0.2
			c0-1.1-0.3-1.9-1-2.5c-0.7-0.6-1.6-0.9-2.9-0.9c-0.9,0-1.7,0.1-2.6,0.4c-0.8,0.3-1.6,0.7-2.2,1.1l-1.4-2.7c0.8-0.6,1.8-1.1,3-1.4
			c1.2-0.3,2.4-0.5,3.7-0.5C-42.3,329.6-40.5,330.2-39.3,331.3z M-42.6,342.3c0.7-0.4,1.2-1,1.5-1.8v-1.8h-3.8
			c-2.1,0-3.2,0.7-3.2,2.1c0,0.7,0.3,1.2,0.8,1.6c0.5,0.4,1.3,0.6,2.2,0.6C-44.1,343-43.3,342.8-42.6,342.3z"/>
		<path class="st0" d="M-19.2,331.3c1.2,1.2,1.8,2.9,1.8,5.1v9H-21v-8.5c0-1.4-0.3-2.4-1-3.1s-1.6-1-2.8-1c-1.3,0-2.4,0.4-3.2,1.2
			s-1.2,2-1.2,3.5v7.9h-3.7v-21.7h3.7v7.9c0.6-0.6,1.3-1.1,2.2-1.5c0.9-0.3,1.9-0.5,3-0.5C-21.9,329.6-20.4,330.2-19.2,331.3z"/>
		<path class="st0" d="M-1.5,331.3c1.2,1.1,1.8,2.8,1.8,5v9.2h-3.5v-1.9c-0.4,0.7-1.1,1.2-1.9,1.6c-0.8,0.4-1.8,0.5-3,0.5
			c-1.2,0-2.2-0.2-3.1-0.6c-0.9-0.4-1.6-1-2-1.7s-0.7-1.5-0.7-2.4c0-1.4,0.5-2.5,1.6-3.4c1-0.8,2.7-1.3,4.9-1.3h4v-0.2
			c0-1.1-0.3-1.9-1-2.5c-0.7-0.6-1.6-0.9-2.9-0.9c-0.9,0-1.7,0.1-2.6,0.4c-0.8,0.3-1.6,0.7-2.2,1.1l-1.4-2.7c0.8-0.6,1.8-1.1,3-1.4
			c1.2-0.3,2.4-0.5,3.7-0.5C-4.5,329.6-2.7,330.2-1.5,331.3z M-4.8,342.3c0.7-0.4,1.2-1,1.5-1.8v-1.8h-3.8c-2.1,0-3.2,0.7-3.2,2.1
			c0,0.7,0.3,1.2,0.8,1.6c0.5,0.4,1.3,0.6,2.2,0.6C-6.3,343-5.5,342.8-4.8,342.3z"/>
	</g>
</g>
</svg>
